PathFileType	4	(X/Y/Z)	C:/Users/beibeiliu/ov580/test_trc/User3\sequence.9_training_dense_right.trc
DataRate	CameraRate	NumFrames	NumMarkers	Units	OrigDataRate	OrigDataStartFrame	OrigNumFrames
120	120	12	19	mm	120	187	213
Frame#	Time	ThumbCMC			ThumbMCP			ThumbIP			ThumbTip			IndexMCP			IndexPIP			IndexTip			MiddleMCP			MiddlePIP			MiddleTip			RingMCP			RingPIP			RingTip			PinkyMCP			PinkyPIP			PinkyTip			BackHand1			BackHand2			BackHand3	
		X0	Y0	Z0	X1	Y1	Z1	X2	Y2	Z2	X3	Y3	Z3	X4	Y4	Z4	X5	Y5	Z5	X6	Y6	Z6	X7	Y7	Z7	X8	Y8	Z8	X9	Y9	Z9	X10	Y10	Z10	X11	Y11	Z11	X12	Y12	Z12	X13	Y13	Z13	X14	Y14	Z14	X15	Y15	Z15	X16	Y16	Z16	X17	Y17	Z17	X18	Y18	Z18	
186	1.55	136.803	6.39777	51.8524	108.79	13.7961	29.0674	91.6486	10.5298	2.59395	81.0859	-4.25673	-15.5302	141.058	19.3201	-23.8554	116.086	26.8426	-46.1597	87.1963	16.5121	-35.8589	126.778	-5.8022	-30.7862	93.3761	-8.2385	-29.4539	97.5749	-17.459	13.2635	118.729	-31.0851	-22.8247	94.6494	-33.1164	-7.5872	105.986	-27.8736	23.8172	119.103	-50.4717	-13.0391	100.689	-41.1058	4.80603	114.873	-37.402	29.6248	168	-32.8958	12.4708	177.774	-42.8082	42.0254	169.298	-3.71983	30.9121	
187	1.55833	136.234	5.14779	51.7782	109.406	10.0162	26.9874	88.6051	10.3216	5.39144	78.1566	-5.37162	-15.3237	141.888	13.6484	-25.6497	114.341	24.724	-48.4729	87.7205	12.8357	-37.9159	126.159	-9.42768	-31.3588	91.4177	-10.5181	-25.6366	98.6553	-19.676	11.7316	118.52	-30.7072	-23.2408	93.807	-31.7819	-8.94298	107.701	-29.3299	24.8236	117.564	-51.6442	-13.3066	99.1827	-46.447	7.4514	117.067	-40.2456	32.2039	169.524	-37.784	11.7332	176.818	-42.1683	39.6393	167.912	-5.44542	31.0079	
188	1.56667	136.085	2.52881	50.1652	106.21	11.121	29.0625	88.1556	6.56684	1.67848	77.0572	-9.28428	-15.5838	142	13.4913	-28.381	117.052	18.2024	-51.0262	89.0679	10.2813	-42.8313	124.228	-11.0458	-34.6879	93.7917	-17.8668	-31.4266	98.3993	-22.6325	11.0629	119.691	-32.3873	-22.5761	92.899	-37.1182	-8.69261	106.903	-34.0987	24.3719	120.98	-50.7934	-12.5327	98.842	-45.315	5.60948	116.606	-39.5949	31.427	167.674	-40.0192	13.3187	176.58	-42.7185	38.5512	170.084	-11.8951	33.2147	
189	1.575	133.296	4.7589	46.4658	105.105	8.15541	24.4976	83.8701	4.03984	-0.45034	77.219	-15.7565	-15.8907	141.336	9.142	-26.6503	118.819	17.8091	-53.649	90.1564	13.049	-49.6326	123.814	-14.7694	-35.4313	89.2027	-17.0952	-28.2219	93.6484	-22.7317	9.21654	115.923	-35.8872	-23.7498	91.7059	-37.141	-7.15343	105.821	-38.0926	23.1558	121.14	-58.0018	-11.7435	99.2942	-46.9876	5.88925	114.408	-43.6684	28.5208	168.142	-42.7691	10.9172	176.426	-44.609	40.4201	167.516	-9.5878	31.3866	
190	1.58333	134.275	1.12927	49.479	104.702	4.52158	24.8204	83.6727	0.60293	3.6748	74.8989	-19.4844	-16.2169	140.577	8.06005	-29.1342	121.981	14.6815	-55.1315	90.4953	10.3787	-59.1026	124.633	-19.388	-32.9792	88.9448	-24.0706	-28.0422	94.5615	-28.6635	10.8265	114.389	-39.1733	-22.6125	91.1692	-41.062	-6.80091	106.846	-37.6419	26.089	121.912	-56.6236	-11.343	97.7597	-51.3821	5.35955	113.711	-47.0732	29.4856	165.528	-45.0056	8.60092	176.148	-47.0625	42.2925	167.194	-10.046	30.4331	
191	1.59167	133.068	-1.69902	43.5693	105.814	0.403256	28.2176	80.7327	-1.4889	1.21532	70.6298	-17.7464	-12.5642	138.855	1.99261	-33.2115	123.714	10.5562	-56.3959	97.744	11.9218	-66.7576	117.858	-24.4983	-35.2809	87.8518	-27.4213	-28.6845	91.4029	-28.5197	11.8515	117.096	-44.8841	-21.6029	89.8013	-43.2589	-5.73216	103.127	-37.4183	24.9935	117.091	-63.1384	-11.3447	96.0812	-57.2666	8.30968	114.635	-45.1569	30.2686	166.633	-43.1357	9.28374	174.455	-47.0999	40.8223	165.069	-15.9702	26.3055	
192	1.6	132.431	-1.63427	44.3868	100.969	2.0046	27.0234	82.6039	-5.12837	2.46825	68.9277	-19.6782	-11.6373	136.701	2.90673	-30.3487	125.072	5.02844	-55.0308	98.7275	8.44686	-73.8764	116.365	-27.6899	-33.8303	84.7813	-28.2442	-24.4244	88.8183	-29.3244	14.8918	111.048	-44.857	-21.1157	88.0621	-48.8312	-4.31559	102.162	-36.9877	27.3052	114.632	-60.8682	-10.2777	94.1767	-56.8322	9.68751	110.971	-51.1452	32.958	163.284	-47.1049	9.87242	172.905	-48.1745	37.2693	166.366	-15.5533	30.4551	
193	1.60833	132.124	-4.84452	47.7388	99.476	-0.594047	24.4896	79.2968	-4.67937	8.43752	66.202	-21.0309	-10.9219	134.269	-0.572433	-27.9255	122.54	5.66678	-53.9083	101.561	9.43148	-75.9052	112.575	-26.6846	-32.0957	83.1646	-28.521	-25.8698	85.5542	-29.7471	14.0952	113.622	-48.5334	-18.9725	85.4525	-45.8088	-1.27488	99.9916	-38.717	29.601	114.464	-68.325	-7.54604	92.389	-58.811	12.6087	111.885	-50.993	34.4908	162.452	-50.283	6.31746	174.006	-53.7195	40.0444	164.495	-17.3794	30.4378	
194	1.61667	128.834	-2.31438	47.4674	97.0566	-0.44093	27.332	75.7075	-5.75075	6.01044	65.1266	-22.5373	-8.1071	131.079	-3.06264	-32.132	119.479	4.64238	-55.1634	105.38	3.67382	-75.5542	109.833	-30.3761	-32.7734	79.6903	-34.6298	-22.8132	82.5226	-33.4434	16.0407	109.222	-49.0973	-17.8647	84.5899	-51.0233	-1.23012	96.1828	-44.5806	29.4856	110.222	-63.3757	-8.29872	91.7389	-62.2276	10.5379	106.418	-48.3755	31.8374	158.896	-47.7228	7.72793	172.778	-51.0177	38.3981	162.203	-15.5071	27.2285	
195	1.625	128.078	-4.63167	44.7572	97.1006	-3.56592	26.4808	75.8932	-8.18952	9.65536	65.7655	-25.3338	-6.74942	127.897	-2.54068	-31.6414	117.325	5.41246	-54.5868	101.396	8.86997	-77.793	108.466	-27.23	-31.5055	77.1892	-32.5071	-21.9896	79.4024	-36.9667	14.6262	106.405	-51.3381	-16.9662	82.8605	-51.8408	-1.1175	94.7719	-43.2705	30.5326	108.591	-66.2022	-7.46334	90.2998	-63.3233	12.4957	107.193	-46.1948	34.6285	157.924	-45.2785	11.5907	169.763	-50.9894	39.1416	159.967	-17.5446	29.1441	
196	1.63333	126.91	-4.51102	47.3208	96.2022	-3.59456	27.6316	75.0895	-9.02197	10.3231	60.4836	-22.7952	-5.90196	127.078	-1.1307	-31.7793	114.963	4.13193	-53.6261	99.8025	7.857	-75.4296	106.275	-29.1656	-31.1521	75.4492	-34.0611	-21.6551	79.5995	-35.928	19.1057	106.633	-47.9074	-17.8456	81.0952	-53.2152	0.257356	93.5102	-45.7122	31.0241	110.036	-63.8068	-6.61098	89.3338	-60.1429	15.3052	103.05	-52.1965	38.0067	158.86	-50.0823	7.80635	169.804	-52.5444	42.1531	158.541	-18.2771	28.3114	
197	1.64167	126.954	-4.86579	49.4779	94.416	-1.77659	27.4563	73.0951	-6.72744	8.69745	62.0486	-23.0199	-2.85889	126.582	-2.52192	-28.5726	111.894	2.65047	-55.9218	95.3034	1.55041	-72.2321	110.196	-26.9713	-28.9514	76.9773	-31.7695	-24.719	79.6992	-36.8539	18.8119	106.418	-46.7009	-17.0735	80.8468	-52.7583	1.6144	90.5658	-43.2946	29.6422	110.508	-69.1391	-6.09361	88.5987	-60.2633	14.2296	103.666	-49.742	34.2419	155.905	-48.0586	9.36504	168.824	-48.7639	43.5839	159.281	-14.3642	28.8563	
